<svg width="356" height="345" viewBox="0 0 356 345" fill="none" xmlns="http://www.w3.org/2000/svg">
<g filter="url(#filter0_d_191_2)">
<ellipse cx="177.959" cy="275.35" rx="171.5" ry="41" transform="rotate(-9.71424 177.959 275.35)" fill="#020202" fill-opacity="0.2" shape-rendering="crispEdges"/>
</g>
<path fill-rule="evenodd" clip-rule="evenodd" d="M98.5557 2.26562C86.0557 1.76556 72.0557 20.2656 78.5557 32.7656C88.0557 44.7656 94.5557 46.2656 99.5557 47.2657C102.107 55.4688 101.476 61.7743 100.056 73.2656L99.5871 73.6675C87.1736 84.3138 80.8039 89.7767 74.5557 104.766L70.0557 138.766V164.766L74.0557 199.766L71.0557 218.766C65.5506 234.959 62.4793 243.35 57.0557 246.766C51.3675 248.085 48.6524 251.319 44.5557 260.766C44.5557 260.766 41.0557 267.766 44.5557 276.266C48.0557 284.766 59.794 289.606 72.5557 291.766L114.556 293.266L145.556 286.766L175.556 288.266L207.056 277.766H219.556C242.064 271.772 252.202 267.629 254.556 255.266V246.766H249.556C247.722 245.599 243.956 243.166 243.556 242.766C243.156 242.366 231.056 235.932 225.056 232.766H213.056L202.056 226.766L186.556 208.266L172.056 186.766V177.766L171.556 159.266L168.556 131.266L163.556 102.266C161.737 96.9373 159.555 93.7723 156.056 89.2656L140.056 74.2657C139.58 68.1541 139.191 64.7631 140.056 58.2657C140.612 53.595 141.437 50.9704 144.556 46.2657C154.405 44.2501 158.576 40.1154 161.056 21.7657C157.716 9.20165 153.868 4.01211 140.056 1.26569C131.516 0.0104923 126.561 3.12514 117.556 12.2657C110.796 4.02283 109.556 1.76556 98.5557 2.26562ZM109.556 44.2656C113.505 42.6748 115.196 41.0832 117.556 37.2656C124.401 44.8233 127.725 46.7168 133.056 47.2657C133.339 53.1393 133.178 56.8008 132.056 64.2656C130.596 66.6134 131.382 67.8671 129.056 72.2656L111.056 70.7656C107.225 61.4304 107.495 56.0971 109.556 44.2656Z" fill="#BF5E2B"/>
<path d="M179.556 114.266L168.556 131.266L171.556 159.266L172.056 177.766V186.766L186.556 208.266L202.056 226.766L213.056 232.766H225.056L224.056 191.266C224.725 172.211 225.717 162.818 229.556 150.266C238.368 130.302 244.814 122.012 260.056 114.266C274.331 112.22 282.68 114.08 298.222 122.266L295.556 114.266L288.056 101.766L278.056 90.7657L262.056 81.2657L249.556 77.2657H230.556L211.056 83.7657L194.056 97.2656L179.556 114.266Z" fill="#79593E"/>
<path d="M306.556 138.266L299.056 124.766L298.222 122.266C282.68 114.08 274.331 112.22 260.056 114.266C244.814 122.012 238.368 130.302 229.556 150.266C225.717 162.818 224.725 172.211 224.056 191.266L225.056 232.766C231.056 235.932 243.156 242.366 243.556 242.766C243.956 243.166 247.722 245.599 249.556 246.766H254.556V244.266C275.259 238.058 284.742 233.211 291.056 215.766H270.556C262.49 205.449 261.673 196.833 265.056 177.766C273.188 154.143 279.424 147.482 292.556 147.266C302.26 149.215 306.235 153.135 311.806 163.016L311.056 154.766L306.556 138.266Z" fill="#6A5343"/>
<path fill-rule="evenodd" clip-rule="evenodd" d="M310.556 187.766L312.556 171.266L311.806 163.016C306.235 153.135 302.26 149.215 292.556 147.266C279.424 147.482 273.188 154.143 265.056 177.766C261.673 196.833 262.49 205.449 270.556 215.766H291.056L301.056 206.766L310.556 187.766ZM302.556 168.766C306.571 170.084 307.419 171.846 308.556 175.266C308.772 181.216 308.648 184.012 307.056 186.266C304.848 190.629 301.999 191.173 295.556 192.266C292.04 191.224 291.623 187.959 292.556 179.266C294.66 172.904 296.352 169.99 302.556 168.766Z" fill="#6D523B"/>
<path d="M308.556 175.266C307.419 171.846 306.571 170.084 302.556 168.766C296.352 169.99 294.66 172.904 292.556 179.266C291.623 187.959 292.04 191.224 295.556 192.266C301.999 191.173 304.848 190.629 307.056 186.266C308.648 184.012 308.772 181.216 308.556 175.266Z" fill="#685141"/>
<path d="M168.556 131.266L163.556 102.266C161.737 96.9373 159.555 93.7723 156.056 89.2656L140.056 74.2657C139.58 68.1541 139.191 64.7631 140.056 58.2657C140.612 53.595 141.437 50.9704 144.556 46.2657C154.405 44.2501 158.576 40.1154 161.056 21.7657C157.716 9.20165 153.868 4.01211 140.056 1.26569C131.516 0.0104923 126.561 3.12514 117.556 12.2657C110.796 4.02283 109.556 1.76556 98.5557 2.26562C86.0557 1.76556 72.0557 20.2656 78.5557 32.7656C88.0557 44.7656 94.5557 46.2656 99.5557 47.2657C102.107 55.4688 101.476 61.7743 100.056 73.2656M168.556 131.266L179.556 114.266L194.056 97.2656L211.056 83.7657L230.556 77.2657H249.556L262.056 81.2657L278.056 90.7657L288.056 101.766L295.556 114.266L298.222 122.266M168.556 131.266L171.556 159.266L172.056 177.766V186.766L186.556 208.266L202.056 226.766L213.056 232.766H225.056M291.056 215.766L301.056 206.766L310.556 187.766L312.556 171.266L311.806 163.016M291.056 215.766C284.742 233.211 275.259 238.058 254.556 244.266V246.766M291.056 215.766H270.556C262.49 205.449 261.673 196.833 265.056 177.766C273.188 154.143 279.424 147.482 292.556 147.266C302.26 149.215 306.235 153.135 311.806 163.016M100.056 73.2656L99.5871 73.6675M100.056 73.2656C99.8985 73.4004 99.7423 73.5344 99.5871 73.6675M225.056 232.766C231.056 235.932 243.156 242.366 243.556 242.766C243.956 243.166 247.722 245.599 249.556 246.766H254.556M225.056 232.766L224.056 191.266C224.725 172.211 225.717 162.818 229.556 150.266C238.368 130.302 244.814 122.012 260.056 114.266C274.331 112.22 282.68 114.08 298.222 122.266M254.556 246.766V255.266C252.202 267.629 242.064 271.772 219.556 277.766H207.056L175.556 288.266L145.556 286.766L114.556 293.266L72.5557 291.766C59.794 289.606 48.0557 284.766 44.5557 276.266C41.0557 267.766 44.5557 260.766 44.5557 260.766C48.6524 251.319 51.3675 248.085 57.0557 246.766C62.4793 243.35 65.5506 234.959 71.0557 218.766L74.0557 199.766L70.0557 164.766V138.766L74.5557 104.766C80.8039 89.7767 87.1736 84.3138 99.5871 73.6675M298.222 122.266L299.056 124.766L306.556 138.266L311.056 154.766L311.806 163.016M117.556 37.2656C115.196 41.0832 113.505 42.6748 109.556 44.2656C107.495 56.0971 107.225 61.4304 111.056 70.7656L129.056 72.2656C131.382 67.8671 130.596 66.6134 132.056 64.2656C133.178 56.8008 133.339 53.1393 133.056 47.2657C127.725 46.7168 124.401 44.8233 117.556 37.2656ZM308.556 175.266C307.419 171.846 306.571 170.084 302.556 168.766C296.352 169.99 294.66 172.904 292.556 179.266C291.623 187.959 292.04 191.224 295.556 192.266C301.999 191.173 304.848 190.629 307.056 186.266C308.648 184.012 308.772 181.216 308.556 175.266Z" stroke="white"/>
<path d="M115.056 22.2657L114.57 22.1464L114.548 22.2361L114.56 22.3277L115.056 22.2657ZM115.056 22.2657L114.56 22.3278L114.56 22.3281L114.56 22.3292L114.56 22.3335L114.562 22.3506L114.571 22.4176L114.602 22.6729C114.63 22.8934 114.669 23.2096 114.716 23.5921C114.809 24.3572 114.934 25.3877 115.059 26.4491C115.184 27.5109 115.309 28.6023 115.402 29.4899C115.497 30.3933 115.556 31.0486 115.556 31.2657C115.556 31.2634 115.556 31.2639 115.555 31.2674C115.553 31.2788 115.547 31.3231 115.522 31.4104C115.492 31.5131 115.445 31.6488 115.377 31.8146C115.242 32.1456 115.032 32.5779 114.741 33.0763C114.16 34.0729 113.265 35.3176 112.019 36.5329C109.533 38.9583 105.653 41.2657 100.056 41.2657C88.7609 41.2657 80.0558 33.4236 80.0557 24.2657C80.0556 19.6906 82.5932 14.8133 86.463 11.1279C90.3298 7.44516 95.453 5.02335 100.532 5.26515C105.67 5.50976 109.573 7.36853 112.188 9.38764C113.496 10.3983 114.477 11.4456 115.127 12.3443C115.452 12.794 115.689 13.2001 115.843 13.54C116.002 13.89 116.056 14.1324 116.056 14.2657C116.056 15.15 115.695 17.0924 115.317 18.873C115.13 19.7502 114.943 20.569 114.803 21.1687C114.733 21.4684 114.675 21.7132 114.634 21.8829C114.614 21.9677 114.598 22.0338 114.587 22.0785L114.574 22.1294L114.571 22.1422L114.57 22.1454L114.57 22.1462L114.57 22.1463L115.056 22.2657Z" fill="white" stroke="white"/>
<path d="M119.056 22.7656C119.055 10.0993 129.271 3.76575 137.556 3.76562C141.694 3.76556 146.836 5.35335 150.937 8.53557C155.024 11.7079 158.056 16.4459 158.056 22.7656C158.056 29.136 155.732 34.1238 152.03 37.5223C148.322 40.9261 143.199 42.7656 137.556 42.7656C131.917 42.7656 127.308 40.9299 124.106 37.5469C120.902 34.1612 119.056 29.1706 119.056 22.7656Z" fill="white" stroke="white"/>
<path d="M96.9717 30.2246C95.6445 28.8974 94.8013 26.9039 94.5557 24.243C94.5656 19.5048 97.6884 16.143 102.098 15.7638C104.52 15.5555 106.755 16.2697 108.382 17.7241C110.001 19.1719 111.051 21.3842 111.056 24.2464C110.812 27.3649 109.619 29.3465 108.061 30.5584C106.486 31.7837 104.48 32.2656 102.556 32.2656C100.159 32.2656 98.2968 31.5497 96.9717 30.2246Z" fill="#6C543F" stroke="#6C543F"/>
<path d="M131.972 30.7619C130.645 29.4347 129.801 27.4412 129.556 24.7804C129.566 20.0422 132.688 16.6803 137.098 16.3011C139.52 16.0929 141.755 16.8071 143.382 18.2615C145.001 19.7093 146.051 21.9215 146.056 24.7838C145.812 27.9023 144.619 29.8839 143.061 31.0958C141.486 32.3211 139.48 32.803 137.556 32.803C135.159 32.8029 133.297 32.087 131.972 30.7619Z" fill="#6C543F" stroke="#6C543F"/>
<path d="M98.5557 22.7656C99.8661 22.679 100.132 23.0556 100.556 23.7656C100.615 24.8155 100.247 25.2291 99.0557 25.7656C98.2569 25.6468 98.0247 25.4368 98.0557 24.7656C97.9647 23.7146 98.1453 23.3399 98.5557 22.7656Z" fill="white"/>
<path fill-rule="evenodd" clip-rule="evenodd" d="M101.556 18.7656C98.8677 20.0151 98.2408 21.4238 97.5557 24.2656C98.0448 27.7567 99.1288 28.5593 101.556 29.2656C104.978 28.2273 106.356 27.1549 107.556 24.2656C106.859 20.3249 105.689 18.9637 101.556 18.7656ZM100.556 23.7656C100.132 23.0556 99.8661 22.679 98.5557 22.7656C98.1453 23.3399 97.9647 23.7146 98.0557 24.7656C98.0247 25.4368 98.2569 25.6468 99.0557 25.7656C100.247 25.2291 100.615 24.8155 100.556 23.7656Z" fill="#160E0F"/>
<path d="M99.22 21.1967C99.7179 20.4533 100.435 19.8539 101.655 19.2714C103.612 19.3781 104.752 19.7585 105.499 20.4734C106.252 21.194 106.695 22.3372 107.037 24.2083C106.473 25.5337 105.881 26.4073 105.071 27.0737C104.25 27.7499 103.165 28.2454 101.553 28.7435C100.438 28.4089 99.7193 28.0673 99.2051 27.4804C98.9198 27.1548 98.6803 26.7337 98.4824 26.1548C98.6434 26.2035 98.8133 26.2351 98.9821 26.2602L99.1272 26.2818L99.261 26.2215C99.8635 25.9502 100.355 25.6712 100.67 25.2642C101.007 24.8291 101.088 24.3238 101.055 23.7373L101.048 23.6148L100.985 23.5095C100.782 23.1687 100.553 22.7856 100.148 22.5395C99.7643 22.3066 99.2911 22.2318 98.673 22.2585C98.8314 21.8615 99.0084 21.5127 99.22 21.1967ZM98.5551 24.7886L98.5567 24.7555L98.5538 24.7225C98.5109 24.2267 98.5369 23.9387 98.5983 23.7246C98.6432 23.5678 98.7131 23.4282 98.8265 23.2541C99.2791 23.2456 99.4973 23.3144 99.6286 23.3942C99.7734 23.4821 99.8815 23.62 100.061 23.9139C100.069 24.2977 99.9979 24.4989 99.8794 24.6521C99.7396 24.8327 99.4845 25.0131 98.9862 25.2473C98.7045 25.1947 98.6196 25.1403 98.5949 25.116L98.5945 25.1157C98.5905 25.1117 98.5807 25.1022 98.5707 25.0634C98.5582 25.0148 98.5486 24.9311 98.5551 24.7886Z" stroke="#160E0F"/>
<path fill-rule="evenodd" clip-rule="evenodd" d="M137.056 18.7656C134.368 20.0151 133.741 21.4238 133.056 24.2656C133.545 27.7567 134.629 28.5593 137.056 29.2656C140.478 28.2273 141.856 27.1549 143.056 24.2656C142.359 20.3249 141.189 18.9637 137.056 18.7656ZM136.056 23.7656C135.632 23.0556 135.366 22.679 134.056 22.7656C133.645 23.3399 133.465 23.7146 133.556 24.7656C133.525 25.4368 133.757 25.6468 134.556 25.7656C135.747 25.2291 136.115 24.8155 136.056 23.7656Z" fill="#160E0F"/>
<path d="M134.056 22.7656C135.366 22.679 135.632 23.0556 136.056 23.7656C136.115 24.8155 135.747 25.2291 134.556 25.7656C133.757 25.6468 133.525 25.4368 133.556 24.7656C133.465 23.7146 133.645 23.3399 134.056 22.7656Z" fill="white"/>
<path d="M136.555 23.7373L136.548 23.6148L136.485 23.5095C136.282 23.1687 136.053 22.7856 135.648 22.5395C135.264 22.3066 134.791 22.2318 134.173 22.2585C134.331 21.8615 134.508 21.5127 134.72 21.1967C135.218 20.4533 135.935 19.8539 137.155 19.2714C139.112 19.3781 140.252 19.7585 140.999 20.4734C141.752 21.194 142.195 22.3372 142.537 24.2083C141.973 25.5337 141.381 26.4073 140.571 27.0737C139.75 27.7499 138.665 28.2454 137.053 28.7435C135.938 28.4089 135.219 28.0673 134.705 27.4804C134.42 27.1548 134.18 26.7337 133.982 26.1548C134.143 26.2035 134.313 26.2351 134.482 26.2602L134.627 26.2818L134.761 26.2215C135.364 25.9502 135.855 25.6712 136.17 25.2642C136.507 24.8291 136.588 24.3238 136.555 23.7373ZM134.055 24.7886L134.057 24.7555L134.054 24.7225C134.011 24.2267 134.037 23.9387 134.098 23.7246C134.143 23.5678 134.213 23.4282 134.327 23.2541C134.779 23.2456 134.997 23.3144 135.129 23.3942C135.273 23.4821 135.382 23.62 135.561 23.9139C135.569 24.2977 135.498 24.4989 135.379 24.6521C135.24 24.8327 134.985 25.0131 134.486 25.2473C134.204 25.1947 134.12 25.1403 134.095 25.116L134.095 25.1157C134.09 25.1117 134.081 25.1022 134.071 25.0634C134.058 25.0148 134.049 24.9311 134.055 24.7886Z" stroke="#160E0F"/>
<path d="M108.056 140.266C112.009 138.886 113.479 137.484 114.556 133.766L102.556 135.266C103.569 139.957 104.899 140.765 108.056 140.266Z" fill="white"/>
<path fill-rule="evenodd" clip-rule="evenodd" d="M78.5557 146.266L77.5557 132.766L83.5557 135.266C83.7857 139.002 84.7346 140.113 87.5557 140.766C90.2959 140.258 90.9506 139.052 90.5557 135.266C91.0395 136.165 91.4121 136.939 91.7315 137.601C93.1092 140.461 93.4966 141.266 97.5557 141.266C101.015 141.76 101.149 141.197 102.507 135.469C102.523 135.402 102.539 135.334 102.556 135.266C103.569 139.957 104.899 140.765 108.056 140.266C112.009 138.886 113.479 137.484 114.556 133.766L133.056 129.266L117.056 153.266C110.002 151.106 105.874 150.142 97.5557 149.766C92.9556 151.956 91.082 154.18 88.5557 159.266L89.5557 168.866C82.5563 166.775 79.6356 162.318 78.5557 146.266Z" fill="black"/>
<path d="M91.0557 169.266C102.074 170.512 107.523 164.865 117.056 153.266C110.002 151.106 105.874 150.142 97.5557 149.766C92.9556 151.956 91.082 154.18 88.5557 159.266L89.5557 168.866C90.0362 169.009 90.536 169.141 91.0557 169.266Z" fill="#FF0000"/>
<path d="M87.5557 140.766C90.2959 140.258 90.9506 139.052 90.5557 135.266H83.5557C83.7857 139.002 84.7346 140.113 87.5557 140.766Z" fill="white"/>
<path d="M102.556 135.266H90.5557C91.0395 136.165 91.4121 136.939 91.7315 137.601C93.1092 140.461 93.4966 141.266 97.5557 141.266C101.015 141.76 101.149 141.197 102.507 135.469L102.556 135.266Z" fill="white"/>
<path d="M108.134 140.759L108.178 140.752L108.22 140.738C110.221 140.04 111.661 139.314 112.736 138.248C113.764 137.229 114.419 135.94 114.953 134.184L131.929 130.054L116.846 152.679C109.977 150.587 105.808 149.638 97.5783 149.266L97.4535 149.26L97.3407 149.314C95.0025 150.428 93.326 151.565 91.9114 153.09C90.503 154.609 89.3776 156.487 88.1079 159.043L88.0433 159.173L88.0584 159.317L88.9792 168.158C85.9602 167.136 83.824 165.573 82.2805 162.573C80.5909 159.289 79.594 154.251 79.0545 146.232L79.0543 146.229L78.1144 133.54L83.0779 135.608C83.2075 137.331 83.5121 138.574 84.1837 139.472C84.9092 140.441 85.9945 140.918 87.443 141.253L87.5444 141.276L87.6467 141.257C89.065 140.995 90.1039 140.524 90.6704 139.484C90.9579 138.957 91.1038 138.314 91.1471 137.541C91.1928 137.635 91.2373 137.728 91.281 137.818C91.2971 137.852 91.313 137.885 91.3289 137.918C91.9737 139.257 92.4654 140.278 93.3461 140.912C94.2587 141.568 95.509 141.763 97.5201 141.766C98.3675 141.886 99.077 141.952 99.667 141.869C100.301 141.781 100.804 141.52 101.21 141.013C101.591 140.537 101.865 139.867 102.125 139.006C102.271 138.526 102.417 137.967 102.577 137.323C102.989 138.601 103.492 139.51 104.178 140.093C105.209 140.97 106.528 141.013 108.134 140.759ZM97.6583 150.271C105.558 150.636 109.633 151.539 116.194 153.526C111.647 159.04 108.063 163.101 104.329 165.671C100.509 168.301 96.5217 169.375 91.1422 168.772C90.7554 168.679 90.3809 168.582 90.0181 168.479L89.068 159.358C90.297 156.898 91.3571 155.158 92.6446 153.77C93.9268 152.388 95.4569 151.33 97.6583 150.271ZM84.9843 138.872C84.5109 138.24 84.2287 137.298 84.0941 135.766H90.101C90.2397 137.39 90.1372 138.373 89.7923 139.006C89.4542 139.626 88.8208 140.009 87.5667 140.255C86.256 139.941 85.4832 139.539 84.9843 138.872ZM92.1809 137.382C91.9514 136.906 91.6923 136.368 91.3831 135.766H101.923C101.629 137.003 101.396 137.965 101.168 138.716C100.914 139.556 100.684 140.07 100.429 140.389C100.199 140.676 99.9352 140.822 99.5285 140.879C99.0862 140.941 98.4932 140.894 97.6264 140.771L97.5912 140.766H97.5557C95.5285 140.766 94.565 140.557 93.93 140.1C93.2795 139.632 92.8909 138.856 92.1819 137.384L92.1809 137.382ZM104.826 139.331C104.168 138.772 103.64 137.692 103.165 135.693L113.848 134.358C113.372 135.775 112.815 136.762 112.032 137.538C111.122 138.44 109.862 139.102 107.933 139.779C106.409 140.015 105.496 139.901 104.826 139.331Z" stroke="black"/>
<defs>
<filter id="filter0_d_191_2" x="0.773926" y="225.642" width="354.37" height="115.417" filterUnits="userSpaceOnUse" color-interpolation-filters="sRGB">
<feFlood flood-opacity="0" result="BackgroundImageFix"/>
<feColorMatrix in="SourceAlpha" type="matrix" values="0 0 0 0 0 0 0 0 0 0 0 0 0 0 0 0 0 0 127 0" result="hardAlpha"/>
<feOffset dy="8"/>
<feGaussianBlur stdDeviation="4"/>
<feComposite in2="hardAlpha" operator="out"/>
<feColorMatrix type="matrix" values="0 0 0 0 0 0 0 0 0 0 0 0 0 0 0 0 0 0 0.25 0"/>
<feBlend mode="normal" in2="BackgroundImageFix" result="effect1_dropShadow_191_2"/>
<feBlend mode="normal" in="SourceGraphic" in2="effect1_dropShadow_191_2" result="shape"/>
</filter>
</defs>
</svg>
