<svg width="30" height="30" viewBox="0 0 30 30" fill="none" xmlns="http://www.w3.org/2000/svg">
<path d="M8.96605 21.7687C9.42408 22.371 10.0593 22.8145 10.7824 23.0371C11.5055 23.2596 12.2802 23.25 12.9976 23.0096C13.715 22.7692 14.339 22.3101 14.782 21.6967C15.225 21.0833 15.4646 20.3466 15.4673 19.59V2.5H19.7735V3.05125C19.8913 4.32239 20.4119 5.5227 21.2596 6.47719C22.1073 7.43169 23.2377 8.09047 24.486 8.3575C24.8983 8.44445 25.3185 8.48802 25.7398 8.4875V12.7662C23.6005 12.7701 21.5139 12.1029 19.7735 10.8587V19.5912C19.7735 21.1639 19.3047 22.7008 18.4272 24.0059C17.5497 25.3109 16.3032 26.3249 14.8469 26.9183C13.3905 27.5117 11.7903 27.6577 10.2506 27.3376C8.7109 27.0176 7.30149 26.2459 6.2023 25.1212C5.04967 23.9413 4.29467 22.4306 4.0429 20.8005C3.79114 19.1704 4.05519 17.5023 4.79815 16.0296C5.5411 14.5569 6.72578 13.3533 8.18648 12.5871C9.64719 11.8209 11.3109 11.5304 12.9448 11.7562V16.1312C12.2121 15.8981 11.4241 15.9044 10.6952 16.1493C9.96634 16.3941 9.33438 16.8648 8.89101 17.493C8.44763 18.1212 8.21589 18.8743 8.22938 19.6431C8.24287 20.412 8.5009 21.1565 8.96605 21.7687ZM8.96605 21.7687L8.96355 21.7675" stroke="black" stroke-width="2"/>
</svg>
